<?xml version="1.0" encoding="UTF-8" standalone="no" ?>
<!DOCTYPE svg PUBLIC "-//W3C//DTD SVG 1.1//EN" "http://www.w3.org/Graphics/SVG/1.1/DTD/svg11.dtd">
<svg xmlns="http://www.w3.org/2000/svg" xmlns:xlink="http://www.w3.org/1999/xlink" version="1.1" width="1080" height="1080" viewBox="0 0 1080 1080" xml:space="preserve">
<desc>Created with Fabric.js 5.2.4</desc>
<defs>
</defs>
<rect x="0" y="0" width="100%" height="100%" fill="transparent"></rect>
<g transform="matrix(1 0 0 1 540 540)" id="dac65c33-1fc0-4823-9206-c957e5bb7b0f"  >
<rect style="stroke: none; stroke-width: 1; stroke-dasharray: none; stroke-linecap: butt; stroke-dashoffset: 0; stroke-linejoin: miter; stroke-miterlimit: 4; fill: rgb(255,255,255); fill-rule: nonzero; opacity: 1; visibility: hidden;" vector-effect="non-scaling-stroke"  x="-540" y="-540" rx="0" ry="0" width="1080" height="1080" />
</g>
<g transform="matrix(Infinity NaN NaN Infinity 0 0)" id="6c292955-4a3a-4c87-85db-8b27f2bc88af"  >
</g>
<g transform="matrix(14.36 0 0 14.51 540 540)"  >
<g style="" vector-effect="non-scaling-stroke"   >
		<g transform="matrix(1 0 0 1 0 0)"  >
<path style="stroke: none; stroke-width: 1; stroke-dasharray: none; stroke-linecap: butt; stroke-dashoffset: 0; stroke-linejoin: miter; stroke-miterlimit: 4; fill: rgb(255,255,255); fill-rule: nonzero; opacity: 1;" vector-effect="non-scaling-stroke"  transform=" translate(-36.07, -36.07)" d="M 36.0678 0 C 28.9343 -8.50666e-8 21.9609 2.11534 16.0296 6.07852 C 10.0983 10.0417 5.47539 15.6747 2.7455 22.2652 C 0.0156126 28.8558 -0.698651 36.1078 0.693031 43.1043 C 2.08471 50.1007 5.51984 56.5274 10.564 61.5716 C 15.6082 66.6157 22.0348 70.0509 29.0313 71.4426 C 36.0278 72.8342 43.2798 72.12 49.8703 69.3901 C 56.4609 66.6602 62.0939 62.0373 66.0571 56.106 C 70.0202 50.1747 72.1356 43.2013 72.1356 36.0678 L 54.1017 36.0678 C 54.1017 39.6346 53.044 43.1212 51.0624 46.0869 C 49.0808 49.0526 46.2643 51.364 42.9691 52.7289 C 39.6738 54.0939 36.0478 54.451 32.5496 53.7552 C 29.0513 53.0593 25.838 51.3418 23.3159 48.8197 C 20.7938 46.2976 19.0763 43.0843 18.3804 39.586 C 17.6846 36.0878 18.0417 32.4618 19.4066 29.1665 C 20.7716 25.8713 23.083 23.0547 26.0487 21.0732 C 29.0144 19.0916 32.501 18.0339 36.0678 18.0339 L 36.0678 0 Z" stroke-linecap="round" />
</g>
		<g transform="matrix(1 0 0 1 -18.03 -18.03)"  >
<path style="stroke: none; stroke-width: 1; stroke-dasharray: none; stroke-linecap: butt; stroke-dashoffset: 0; stroke-linejoin: miter; stroke-miterlimit: 4; fill: rgb(92,225,230); fill-rule: nonzero; opacity: 1;" vector-effect="non-scaling-stroke"  transform=" translate(-18.03, -18.03)" d="M 36.0678 0 C 31.3313 -5.64821e-8 26.6412 0.932921 22.2652 2.7455 C 17.8893 4.55807 13.9132 7.21481 10.564 10.564 C 7.21481 13.9132 4.55807 17.8893 2.7455 22.2653 C 0.93292 26.6412 -7.1519e-7 31.3313 0 36.0678 L 18.0339 36.0678 C 18.0339 33.6996 18.5004 31.3545 19.4066 29.1665 C 20.3129 26.9785 21.6413 24.9905 23.3159 23.3159 C 24.9905 21.6413 26.9785 20.3129 29.1665 19.4066 C 31.3545 18.5004 33.6995 18.0339 36.0678 18.0339 L 36.0678 0 Z" stroke-linecap="round" />
</g>
		<g transform="matrix(1 0 0 1 0 0)"  >
<circle style="stroke: none; stroke-width: 1; stroke-dasharray: none; stroke-linecap: butt; stroke-dashoffset: 0; stroke-linejoin: miter; stroke-miterlimit: 4; fill: rgb(92,225,230); fill-rule: nonzero; opacity: 1;" vector-effect="non-scaling-stroke"  cx="0" cy="0" r="11.2712" />
</g>
		<g transform="matrix(1 0 0 1 0 -5.64)"  >
<path style="stroke: none; stroke-width: 1; stroke-dasharray: none; stroke-linecap: butt; stroke-dashoffset: 0; stroke-linejoin: miter; stroke-miterlimit: 4; fill: rgb(255,255,255); fill-rule: nonzero; opacity: 1;" vector-effect="non-scaling-stroke"  transform=" translate(-36.07, -30.43)" d="M 47.339 36.0678 C 47.339 34.5877 47.0475 33.122 46.481 31.7545 C 45.9146 30.387 45.0844 29.1445 44.0377 28.0979 C 42.9911 27.0513 41.7486 26.221 40.3811 25.6546 C 39.0136 25.0882 37.548 24.7966 36.0678 24.7966 C 34.5876 24.7966 33.122 25.0882 31.7545 25.6546 C 30.387 26.221 29.1445 27.0513 28.0979 28.0979 C 27.0512 29.1445 26.221 30.387 25.6546 31.7545 C 25.0882 33.122 24.7966 34.5877 24.7966 36.0678 L 36.0678 36.0678 L 47.339 36.0678 Z" stroke-linecap="round" />
</g>
</g>
</g>
</svg>